# xmcd
#
# Track frame offsets:
#	150
#	21838
#	39043
#	60998
#	74470
#	95308
#	116193
#	134395
#	154228
#	174455
#
# Disc length: 2531 seconds
#
# Revision: 1
# Processed by: cddbd v1.5.1PL0 Copyright (c) Steve Scherf et al.
# Submitted via: audiograbber 1.83.01
#
DISCID=7e09e10a
DTITLE=Luther Ingram - Luther Ingram
DYEAR=1900
DGENRE=Soul
TTITLE0=Baby don't go too far
TTITLE1=Don't turn around
TTITLE2=Rain,rain,rain (Stormy Weather)
TTITLE3=Make you feel loved again
TTITLE4=Gotta serve somebody
TTITLE5=Right away
TTITLE6=Golden girl
TTITLE7=All in the name of love
TTITLE8=How sweet it would be
TTITLE9=You don't know me
EXTD=
EXTT0=
EXTT1=
EXTT2=
EXTT3=
EXTT4=
EXTT5=
EXTT6=
EXTT7=
EXTT8=
EXTT9=
PLAYORDER=
